/* XPM */
static char * bar_xpm[] = {
"77 18 87 1",
" 	c None",
".	c #0CE2EA",
"+	c #11DDE9",
"@	c #18D8EA",
"#	c #1FD1EA",
"$	c #27CAEA",
"%	c #2FC2EA",
"&	c #37BAEA",
"*	c #41B1EA",
"=	c #4BA8EA",
"-	c #559FEA",
";	c #5F95EA",
">	c #698CEA",
",	c #7482EA",
"'	c #7F78EA",
")	c #8A6EEA",
"!	c #9566EA",
"~	c #9F5CEA",
"{	c #AA54EA",
"]	c #B44BEA",
"^	c #BD43EA",
"/	c #C83CE9",
"(	c #D136E8",
"_	c #D930E6",
":	c #E12BE4",
"<	c #E827E2",
"[	c #F024DF",
"}	c #F621DB",
"|	c #FB21D8",
"1	c #FF21D4",
"2	c #FF23CF",
"3	c #FF26C9",
"4	c #FF2AC4",
"5	c #FF2FBC",
"6	c #FF35B6",
"7	c #FF3BAE",
"8	c #FF43A6",
"9	c #FF4A9E",
"0	c #FF5395",
"a	c #FF5D8C",
"b	c #FF6683",
"c	c #FF7079",
"d	c #FF7A71",
"e	c #FF8567",
"f	c #FF905E",
"g	c #FF9A55",
"h	c #FFA44B",
"i	c #FFAF43",
"j	c #FFB93A",
"k	c #FFC331",
"l	c #FFCC2A",
"m	c #FFD522",
"n	c #FFDE1B",
"o	c #FFE514",
"p	c #FFEC0F",
"q	c #FFF309",
"r	c #FFF804",
"s	c #0BE2E9",
"t	c #11DEEA",
"u	c #18D7E9",
"v	c #27C9EA",
"w	c #38BAEA",
"x	c #4AA8EA",
"y	c #6A8CEA",
"z	c #8A6FEA",
"A	c #9465EA",
"B	c #AA53EA",
"C	c #C83CEA",
"D	c #D036E8",
"E	c #E22BE5",
"F	c #E927E1",
"G	c #F521DC",
"H	c #FF21D3",
"I	c #FF26CA",
"J	c #FF2AC3",
"K	c #FF2FBD",
"L	c #FF34B5",
"M	c #FF4B9D",
"N	c #FF6682",
"O	c #FF717A",
"P	c #FF7A70",
"Q	c #FF8F5E",
"R	c #FFA44C",
"S	c #FFAF42",
"T	c #FFDD1B",
"U	c #FFEC0E",
"V	c #222222",
".+@##$%&&*==-;>>,'))!~~{]^^/((_:<<[}}|12234456778990abbcdeefgghijjkllmnoopqqr",
"stu##v%ww*xx-;yy,'zzA~~B]^^CDD_EFF[GG|H22IJJKL778MM0aNNOPeeQggRSjjkllmTooUqqr",
"VVVVVVVVVVVVVVVVVVVVVVVVVVVVVVVVVVVVVVVVVVVVVVVVVVVVVVVVVVVVVVVVVVVVVVVVVVVVV",
"VVVVVVVVVVVVVVVVVVVVVVVVVVVVVVVVVVVVVVVVVVVVVVVVVVVVVVVVVVVVVVVVVVVVVVVVVVVVV",
"VVVVVVVVVVVVVVVVVVVVVVVVVVVVVVVVVVVVVVVVVVVVVVVVVVVVVVVVVVVVVVVVVVVVVVVVVVVVV",
"VVVVVVVVVVVVVVVVVVVVVVVVVVVVVVVVVVVVVVVVVVVVVVVVVVVVVVVVVVVVVVVVVVVVVVVVVVVVV",
"VVVVVVVVVVVVVVVVVVVVVVVVVVVVVVVVVVVVVVVVVVVVVVVVVVVVVVVVVVVVVVVVVVVVVVVVVVVVV",
"VVVVVVVVVVVVVVVVVVVVVVVVVVVVVVVVVVVVVVVVVVVVVVVVVVVVVVVVVVVVVVVVVVVVVVVVVVVVV",
"VVVVVVVVVVVVVVVVVVVVVVVVVVVVVVVVVVVVVVVVVVVVVVVVVVVVVVVVVVVVVVVVVVVVVVVVVVVVV",
"VVVVVVVVVVVVVVVVVVVVVVVVVVVVVVVVVVVVVVVVVVVVVVVVVVVVVVVVVVVVVVVVVVVVVVVVVVVVV",
"VVVVVVVVVVVVVVVVVVVVVVVVVVVVVVVVVVVVVVVVVVVVVVVVVVVVVVVVVVVVVVVVVVVVVVVVVVVVV",
"VVVVVVVVVVVVVVVVVVVVVVVVVVVVVVVVVVVVVVVVVVVVVVVVVVVVVVVVVVVVVVVVVVVVVVVVVVVVV",
"VVVVVVVVVVVVVVVVVVVVVVVVVVVVVVVVVVVVVVVVVVVVVVVVVVVVVVVVVVVVVVVVVVVVVVVVVVVVV",
"VVVVVVVVVVVVVVVVVVVVVVVVVVVVVVVVVVVVVVVVVVVVVVVVVVVVVVVVVVVVVVVVVVVVVVVVVVVVV",
"VVVVVVVVVVVVVVVVVVVVVVVVVVVVVVVVVVVVVVVVVVVVVVVVVVVVVVVVVVVVVVVVVVVVVVVVVVVVV",
"VVVVVVVVVVVVVVVVVVVVVVVVVVVVVVVVVVVVVVVVVVVVVVVVVVVVVVVVVVVVVVVVVVVVVVVVVVVVV",
"VVVVVVVVVVVVVVVVVVVVVVVVVVVVVVVVVVVVVVVVVVVVVVVVVVVVVVVVVVVVVVVVVVVVVVVVVVVVV",
"VVVVVVVVVVVVVVVVVVVVVVVVVVVVVVVVVVVVVVVVVVVVVVVVVVVVVVVVVVVVVVVVVVVVVVVVVVVVV"};
