/* XPM */
static char * button_unfocused_xpm[] = {
"16 16 4 1",
" 	c None",
".	c #FFF804",
"+	c #222222",
"@	c #404040",
"................",
"................",
"++++++++++++++++",
"++++++++++++++++",
"++++++++++++++++",
"++++++++++++++++",
"++++++++++++++++",
"+++++@@@@@@+++++",
"+++++@@@@@@+++++",
"++++++++++++++++",
"++++++++++++++++",
"++++++++++++++++",
"++++++++++++++++",
"++++++++++++++++",
"++++++++++++++++",
"++++++++++++++++"};
