/* XPM */
static char * stick_pressed_xpm[] = {
"16 16 4 1",
" 	c None",
".	c #0BE2E9",
"+	c #222222",
"@	c #FFFFFF",
"................",
"................",
"++++++++++++++++",
"++++++++++++++++",
"++++++++++++++++",
"++++++++++++++++",
"++++++++++++++++",
"+++++@@@@@@+++++",
"+++++@@@@@@+++++",
"++++++++++++++++",
"++++++++++++++++",
"++++++++++++++++",
"++++++++++++++++",
"++++++++++++++++",
"++++++++++++++++",
"++++++++++++++++"};
